<svg xmlns="http://www.w3.org/2000/svg" xmlns:xlink="http://www.w3.org/1999/xlink" width="1080" height="473.5" viewBox="0 0 1080 473.5">
  <defs>
    <filter id="footer_green_rect" x="0" y="216.5" width="1080" height="257" filterUnits="userSpaceOnUse">
      <feOffset dy="3" input="SourceAlpha"/>
      <feGaussianBlur stdDeviation="22.5" result="blur"/>
      <feFlood flood-color="#afe59a"/>
      <feComposite operator="in" in2="blur"/>
      <feComposite in="SourceGraphic"/>
    </filter>
  </defs>
  <g id="header_design" data-name="header design" transform="translate(-893.5 -5474)">
    <g transform="matrix(1, 0, 0, 1, 893.5, 5474)" filter="url(#footer_green_rect)">
      <path id="footer_green_rect-2" data-name="footer green rect" d="M100,0H945a0,0,0,0,1,0,0V122a0,0,0,0,1,0,0H0a0,0,0,0,1,0,0V100A100,100,0,0,1,100,0Z" transform="translate(67.5 281)" fill="rgba(178,239,155,0.95)"/>
    </g>
    <g id="footer_cubes_1" data-name="footer cubes 1" transform="translate(167 5251)">
      <rect id="Rectangle_4" data-name="Rectangle 4" width="160" height="160" rx="20" transform="translate(1258 223)" fill="#9b519f"/>
      <rect id="Rectangle_9" data-name="Rectangle 9" width="160" height="160" rx="20" transform="translate(1178 324)" fill="#daff7d"/>
      <g id="Rectangle_5" data-name="Rectangle 5" transform="translate(1258 383) rotate(180)" fill="#fff" stroke="#707070" stroke-width="1">
        <rect width="160" height="160" rx="20" stroke="none"/>
        <rect x="0.5" y="0.5" width="159" height="159" rx="19.5" fill="none"/>
      </g>
    </g>
    <g id="footer_cubes_2" data-name="footer cubes 2" transform="translate(120 5272)">
      <rect id="Rectangle_10" data-name="Rectangle 10" width="160" height="160" rx="20" transform="translate(1513 543) rotate(-90)" fill="#9b519f"/>
      <rect id="Rectangle_11" data-name="Rectangle 11" width="160" height="160" rx="20" transform="translate(1435 623) rotate(-90)" fill="#daff7d"/>
      <g id="Rectangle_12" data-name="Rectangle 12" transform="translate(1675 543) rotate(90)" fill="#fff" stroke="#707070" stroke-width="1">
        <rect width="80" height="160" rx="20" stroke="none"/>
        <rect x="0.5" y="0.5" width="79" height="159" rx="19.5" fill="none"/>
      </g>
    </g>
  </g>
</svg>
