<svg xmlns="http://www.w3.org/2000/svg" width="41.508" height="41.508" viewBox="0 0 41.508 41.508">
  <path id="instagram" data-name="Icon simple-instagram" d="M20.254,0c-5.5,0-6.189.025-8.35.122a14.935,14.935,0,0,0-4.917.942A9.919,9.919,0,0,0,3.4,3.4,9.882,9.882,0,0,0,1.063,6.988,14.891,14.891,0,0,0,.122,11.9C.02,14.065,0,14.752,0,20.254s.025,6.189.122,8.35a14.944,14.944,0,0,0,.942,4.917A9.933,9.933,0,0,0,3.4,37.109a9.9,9.9,0,0,0,3.588,2.336,14.954,14.954,0,0,0,4.917.942c2.16.1,2.847.122,8.35.122s6.189-.025,8.35-.122a14.988,14.988,0,0,0,4.917-.942,10.351,10.351,0,0,0,5.924-5.924,14.944,14.944,0,0,0,.942-4.917c.1-2.16.122-2.847.122-8.35s-.025-6.189-.122-8.35a14.979,14.979,0,0,0-.942-4.917A9.941,9.941,0,0,0,37.109,3.4,9.868,9.868,0,0,0,33.52,1.063,14.9,14.9,0,0,0,28.6.122C26.443.02,25.756,0,20.254,0Zm0,3.646c5.406,0,6.051.027,8.186.12a11.159,11.159,0,0,1,3.759.7,6.665,6.665,0,0,1,3.845,3.843,11.183,11.183,0,0,1,.7,3.759c.1,2.137.118,2.778.118,8.186s-.025,6.051-.125,8.186a11.4,11.4,0,0,1-.711,3.759,6.431,6.431,0,0,1-1.517,2.333,6.319,6.319,0,0,1-2.329,1.512,11.265,11.265,0,0,1-3.772.7c-2.15.1-2.783.118-8.2.118s-6.053-.025-8.2-.125a11.485,11.485,0,0,1-3.774-.711A6.272,6.272,0,0,1,5.9,34.506a6.15,6.15,0,0,1-1.519-2.329A11.494,11.494,0,0,1,3.673,28.4c-.076-2.127-.1-2.783-.1-8.176s.027-6.053.1-8.2a11.481,11.481,0,0,1,.709-3.771A6,6,0,0,1,5.9,5.923,5.991,5.991,0,0,1,8.228,4.407,11.21,11.21,0,0,1,11.977,3.7c2.152-.076,2.785-.1,8.2-.1l.076.051Zm0,6.208a10.4,10.4,0,1,0,10.4,10.4A10.4,10.4,0,0,0,20.254,9.854Zm0,17.152a6.751,6.751,0,1,1,6.751-6.751A6.749,6.749,0,0,1,20.254,27.005ZM33.5,9.443a2.43,2.43,0,1,1-2.43-2.429A2.432,2.432,0,0,1,33.5,9.443Z" transform="translate(0.5 0.5)" fill="#9b519f" stroke="#000" stroke-width="1"/>
</svg>
