<svg xmlns="http://www.w3.org/2000/svg" width="59.947" height="73.781" viewBox="0 0 59.947 73.781">
  <g id="landing-page" transform="translate(3.668)">
    <path id="Path_2" data-name="Path 2" d="M249.94,525.32h-25.1a1.441,1.441,0,1,1,0-2.882h25.1a1.441,1.441,0,1,1,0,2.882Zm0,0" transform="translate(-200.89 -462.21)" fill="#843989"/>
    <path id="Path_3" data-name="Path 3" d="M181.063,525.32a1.441,1.441,0,0,1,0-2.882h0a1.441,1.441,0,1,1,0,2.882Zm0,0" transform="translate(-162.159 -462.21)" fill="#843989"/>
    <path id="Path_4" data-name="Path 4" d="M383.057,59.86a4.5,4.5,0,1,1,4.5-4.5A4.507,4.507,0,0,1,383.057,59.86Zm0-6.123a1.62,1.62,0,1,0,1.62,1.621A1.623,1.623,0,0,0,383.057,53.738Zm0,0" transform="translate(-338.159 -44.993)" fill="#843989"/>
    <path id="Path_5" data-name="Path 5" d="M101.736,333.044H95.972a1.441,1.441,0,0,1-1.441-1.441v-5.764a1.441,1.441,0,0,1,1.441-1.441h5.764a1.441,1.441,0,0,1,1.441,1.441V331.6A1.441,1.441,0,0,1,101.736,333.044Zm-4.323-2.882H100.3V327.28H97.413Zm0,0" transform="translate(-86.878 -287.001)" fill="#843989"/>
    <path id="Path_6" data-name="Path 6" d="M351.143,333.044h-5.764a1.441,1.441,0,0,1-1.441-1.441v-5.764a1.441,1.441,0,0,1,1.441-1.441h5.764a1.442,1.442,0,0,1,1.441,1.441V331.6A1.441,1.441,0,0,1,351.143,333.044Zm-4.323-2.882H349.7V327.28H346.82Zm0,0" transform="translate(-307.533 -287.001)" fill="#843989"/>
    <path id="Path_7" data-name="Path 7" d="M226.037,333.044h-5.764a1.441,1.441,0,0,1-1.441-1.441v-5.764a1.442,1.442,0,0,1,1.441-1.441h5.764a1.441,1.441,0,0,1,1.441,1.441V331.6A1.441,1.441,0,0,1,226.037,333.044Zm-4.323-2.882H224.6V327.28h-2.882Zm0,0" transform="translate(-196.85 -287.001)" fill="#843989"/>
    <path id="Path_8" data-name="Path 8" d="M54.838,0H-2.227A1.442,1.442,0,0,0-3.668,1.441v70.9a1.442,1.442,0,0,0,1.441,1.441H54.838a1.442,1.442,0,0,0,1.441-1.441V1.441A1.442,1.442,0,0,0,54.838,0ZM53.4,70.9H-.786V51.846H53.4Zm0-21.935H-.786V34.585H53.4ZM28.871,26.11l4.448,5.554H6.538l13.39-16.718Zm2.97-.9,4.532-5.657,9.7,12.112H37.011ZM53.4,31.7H49.8L37.5,16.347a1.441,1.441,0,0,0-2.249,0l-5.253,6.558L21.053,11.742a1.441,1.441,0,0,0-2.249,0L2.815,31.7h-3.6V2.882H53.4Zm0,0" fill="#843989"/>
    <path id="Path_9" data-name="Path 9" d="M52.763,488.258a6.629,6.629,0,1,1,6.635-6.629A6.639,6.639,0,0,1,52.763,488.258Zm0-10.375a3.747,3.747,0,1,0,3.753,3.747A3.753,3.753,0,0,0,52.763,477.882Zm0,0" transform="translate(-44.056 -420.241)" fill="#843989"/>
  </g>
</svg>
