<svg xmlns="http://www.w3.org/2000/svg" width="95.176" height="73.334" viewBox="0 0 95.176 73.334">
  <path id="logo-design" d="M95.176,76.715a8.908,8.908,0,0,0-14.958-6.539,4.989,4.989,0,0,0-6.807,6.795L59.463,90.92V70.057h8.929a1.394,1.394,0,1,0,0-2.788H59.463V60.145a1.394,1.394,0,1,0-2.788,0v7.123H23.611a1.394,1.394,0,0,0,0,2.788H29.7L13.16,79.594l-.049.03V70.057h4.923a1.394,1.394,0,1,0,0-2.788H13.111V60.146a1.394,1.394,0,1,0-2.788,0v7.123H1.394a1.394,1.394,0,1,0,0,2.788h8.929v50.722H1.394a1.394,1.394,0,1,0,0,2.788h8.929v7.123a1.394,1.394,0,0,0,2.788,0v-7.123H47.746a1.394,1.394,0,1,0,0-2.788H40.091l5.88-3.393a3.262,3.262,0,0,0,2.125.792,3.33,3.33,0,0,0,1.119-.2l7.459-2.658v5.454H53.323a1.394,1.394,0,1,0,0,2.788h3.352v7.123a1.394,1.394,0,0,0,2.788,0v-7.123h8.929a1.394,1.394,0,1,0,0-2.788H59.463v-6.447l2.48-.884h0a1.4,1.4,0,0,0,.133-.056l.03-.016q.047-.024.092-.051l.039-.025c.028-.019.056-.038.082-.059l.032-.024c.036-.029.071-.06.1-.093l0,0,23.55-23.55a4.989,4.989,0,0,0,6.795-6.808,8.839,8.839,0,0,0,2.371-6.048Zm-4.581-4.329a6.117,6.117,0,0,1,.356,8.267l-8.622-8.622a6.131,6.131,0,0,1,8.266.355Zm-37.055,41.1-4.04-4.04,2.378-6.674a3.2,3.2,0,0,1,2.547.476c.532.532.658,1.685.364,3.332,0,.008,0,.016,0,.024-.007.041-.012.082-.014.123,0,.017,0,.033,0,.05,0,.036,0,.073,0,.109a1.394,1.394,0,0,0,1.636,1.312c1.648-.294,2.8-.168,3.332.364a3.194,3.194,0,0,1,.476,2.546Zm8.17-6.9a4.419,4.419,0,0,0-2.181-1.161L71.964,92.991a1.394,1.394,0,0,0-1.972-1.972L57.558,103.453a4.228,4.228,0,0,0-3.344-3.34l21.04-21.041L78.6,82.414l-4.053,4.053a1.394,1.394,0,0,0,1.972,1.972l4.053-4.053,3.342,3.342L62.869,108.768a4.417,4.417,0,0,0-1.159-2.183ZM56.674,70.057v9.578l-.038-.024L40.1,70.057ZM13.116,84.493a2.885,2.885,0,0,1,1.438-2.484L33.469,71.1a2.873,2.873,0,0,1,2.866,0l18.9,10.924a2.879,2.879,0,0,1,1.434,2.485v9.2l-6.147,6.147V89.663a5.671,5.671,0,0,0-2.824-4.9L37.728,79a5.671,5.671,0,0,0-5.656,0l-9.981,5.757a5.673,5.673,0,0,0-2.832,4.9v11.522a5.671,5.671,0,0,0,2.824,4.9l9.976,5.765a5.671,5.671,0,0,0,5.656,0l9.98-5.757.054-.034L45,113.767a3.335,3.335,0,0,0-.193,1.073l-8.488,4.9a2.878,2.878,0,0,1-2.869,0l-18.9-10.924a2.873,2.873,0,0,1-1.429-2.485Zm34.622,5.169v11.522a2.876,2.876,0,0,1-1.437,2.483l-9.981,5.757a2.875,2.875,0,0,1-2.867,0l-9.976-5.765a2.875,2.875,0,0,1-1.431-2.484V89.652a2.876,2.876,0,0,1,1.437-2.483l9.981-5.757a2.876,2.876,0,0,1,2.868,0l9.976,5.764a2.876,2.876,0,0,1,1.43,2.485ZM13.111,120.779V111.2l.038.024,16.533,9.554H13.111Zm35.168-5.423a.511.511,0,0,1-.654-.653l.838-2.353,2.168,2.168ZM90.024,86.785a2.2,2.2,0,0,1-3.114,0l-.043-.043L76.24,76.115l-.043-.043a2.2,2.2,0,0,1,3.114-3.114L90.024,83.671A2.2,2.2,0,0,1,90.024,86.785Z" transform="translate(0 -58.751)" fill="#843989"/>
</svg>
