<svg xmlns="http://www.w3.org/2000/svg" xmlns:xlink="http://www.w3.org/1999/xlink" width="1877" height="659" viewBox="0 0 1877 659">
  <defs>
    <filter id="Rectangle_13" x="0" y="214.5" width="1877" height="257" filterUnits="userSpaceOnUse">
      <feOffset dy="3" input="SourceAlpha"/>
      <feGaussianBlur stdDeviation="22.5" result="blur"/>
      <feFlood flood-color="#afe59a"/>
      <feComposite operator="in" in2="blur"/>
      <feComposite in="SourceGraphic"/>
    </filter>
  </defs>
  <g id="top_design" data-name="top design" transform="translate(-14.5 -241)">
    <g transform="matrix(1, 0, 0, 1, 14.5, 241)" filter="url(#Rectangle_13)">
      <path id="Rectangle_13-2" data-name="Rectangle 13" d="M100,0H1742a0,0,0,0,1,0,0V32a90,90,0,0,1-90,90H0a0,0,0,0,1,0,0V100A100,100,0,0,1,100,0Z" transform="translate(67.5 279)" fill="rgba(178,239,155,0.95)"/>
    </g>
    <g id="_3_cubes" data-name="3 cubes">
      <g id="_1" data-name="1" transform="translate(0 18)">
        <rect id="Rectangle_4" data-name="Rectangle 4" width="160" height="160" rx="20" transform="translate(1258 223)" fill="#9b519f"/>
        <rect id="Rectangle_9" data-name="Rectangle 9" width="160" height="160" rx="20" transform="translate(1178 324)" fill="#daff7d"/>
        <g id="Rectangle_5" data-name="Rectangle 5" transform="translate(1258 383) rotate(180)" fill="#fff" stroke="#707070" stroke-width="1">
          <rect width="160" height="160" rx="20" stroke="none"/>
          <rect x="0.5" y="0.5" width="159" height="159" rx="19.5" fill="none"/>
        </g>
      </g>
      <g id="_3" data-name="3" transform="translate(0 37)">
        <rect id="Rectangle_6" data-name="Rectangle 6" width="160" height="160" rx="20" transform="translate(1258 701)" fill="#9b519f"/>
        <rect id="Rectangle_8" data-name="Rectangle 8" width="160" height="160" rx="20" transform="translate(1178 623)" fill="#daff7d"/>
        <g id="Rectangle_7" data-name="Rectangle 7" transform="translate(1258 863) rotate(180)" fill="#fff" stroke="#707070" stroke-width="1">
          <rect width="160" height="160" rx="20" stroke="none"/>
          <rect x="0.5" y="0.5" width="159" height="159" rx="19.5" fill="none"/>
        </g>
      </g>
      <g id="_2" data-name="2" transform="translate(14 38)">
        <rect id="Rectangle_10" data-name="Rectangle 10" width="160" height="160" rx="20" transform="translate(1513 543) rotate(-90)" fill="#9b519f"/>
        <rect id="Rectangle_11" data-name="Rectangle 11" width="160" height="160" rx="20" transform="translate(1435 623) rotate(-90)" fill="#daff7d"/>
        <g id="Rectangle_12" data-name="Rectangle 12" transform="translate(1675 543) rotate(90)" fill="#fff" stroke="#707070" stroke-width="1">
          <rect width="160" height="160" rx="20" stroke="none"/>
          <rect x="0.5" y="0.5" width="159" height="159" rx="19.5" fill="none"/>
        </g>
      </g>
    </g>
  </g>
</svg>
