<svg xmlns="http://www.w3.org/2000/svg" width="78.697" height="73.729" viewBox="0 0 78.697 73.729">
  <g id="ux-design" transform="translate(0 -16.163)">
    <circle id="Ellipse_3" data-name="Ellipse 3" cx="1.553" cy="1.553" r="1.553" transform="translate(5.966 20.421)" fill="#843989"/>
    <circle id="Ellipse_4" data-name="Ellipse 4" cx="1.553" cy="1.553" r="1.553" transform="translate(12.332 20.421)" fill="#843989"/>
    <circle id="Ellipse_5" data-name="Ellipse 5" cx="1.553" cy="1.553" r="1.553" transform="translate(18.698 20.421)" fill="#843989"/>
    <path id="Path_10" data-name="Path 10" d="M74.47,16.163H4.227A4.232,4.232,0,0,0,0,20.39V45.419a1.153,1.153,0,0,0,2.306,0V27.785H76.392v5.351a1.153,1.153,0,1,0,2.306,0V20.39a4.232,4.232,0,0,0-4.227-4.227ZM2.306,25.479V20.39a1.923,1.923,0,0,1,1.921-1.921H74.47a1.923,1.923,0,0,1,1.921,1.921v5.089Z" transform="translate(0 0)" fill="#843989"/>
    <path id="Path_11" data-name="Path 11" d="M77.544,154a1.153,1.153,0,0,0-1.153,1.153V187.1a1.923,1.923,0,0,1-1.921,1.921H4.227A1.923,1.923,0,0,1,2.306,187.1V167.462a1.153,1.153,0,1,0-2.306,0V187.1a4.232,4.232,0,0,0,4.227,4.227H74.47A4.232,4.232,0,0,0,78.7,187.1V155.153A1.153,1.153,0,0,0,77.544,154Z" transform="translate(0 -116.651)" fill="#843989"/>
    <path id="Path_12" data-name="Path 12" d="M224.273,138.678h7.763a1.153,1.153,0,1,0,0-2.306h-7.763a1.153,1.153,0,1,0,0,2.306Z" transform="translate(-188.825 -101.732)" fill="#843989"/>
    <path id="Path_13" data-name="Path 13" d="M233.189,167.83a1.153,1.153,0,0,0-1.153-1.153h-7.763a1.153,1.153,0,1,0,0,2.306h7.763A1.153,1.153,0,0,0,233.189,167.83Z" transform="translate(-188.825 -127.379)" fill="#843989"/>
    <path id="Path_14" data-name="Path 14" d="M109.028,422.248H87.878a1.153,1.153,0,0,0,0,2.306h9.44v2.2H54.064a1.153,1.153,0,0,0,0,2.306H97.317v2.2H52.461l-4.043-3.35,4.043-3.35H82.527a1.153,1.153,0,1,0,0-2.306H52.045a1.153,1.153,0,0,0-.735.265l-5.434,4.5a1.153,1.153,0,0,0,0,1.775l5.434,4.5a1.153,1.153,0,0,0,.735.265h56.983a1.153,1.153,0,0,0,1.153-1.153V423.4A1.153,1.153,0,0,0,109.028,422.248Zm-1.153,9.005H99.623v-6.7h8.253Z" transform="translate(-38.471 -343.667)" fill="#843989"/>
    <path id="Path_15" data-name="Path 15" d="M53.363,128.974a1.153,1.153,0,0,0-1.153,1.153v4.592H45.6a1.153,1.153,0,0,0-1.153,1.153v12.421a1.153,1.153,0,0,0,1.153,1.153H61.127a1.153,1.153,0,0,0,1.153-1.153V135.872a1.153,1.153,0,0,0-1.153-1.153H54.516v-3.439h21.3v3.439H69.2a1.153,1.153,0,0,0-1.153,1.153v12.421a1.153,1.153,0,0,0,1.153,1.153H84.727a1.153,1.153,0,0,0,1.153-1.153V135.872a1.153,1.153,0,0,0-1.153-1.153H78.117v-3.439h21.3v3.439H92.8a1.153,1.153,0,0,0-1.153,1.153v12.421a1.153,1.153,0,0,0,1.153,1.153h15.527a1.153,1.153,0,0,0,1.153-1.153V135.872a1.153,1.153,0,0,0-1.153-1.153h-6.611v-4.592a1.153,1.153,0,0,0-1.153-1.153H78.117v-3.129h6.611a1.153,1.153,0,0,0,1.153-1.153V112.271a1.153,1.153,0,0,0-1.153-1.153H69.2a1.153,1.153,0,0,0-1.153,1.153v12.421a1.153,1.153,0,0,0,1.153,1.153h6.611v3.129Zm6.611,18.166H46.753V137.024H59.974Zm23.6,0H70.353V137.024H83.574Zm23.6,0H93.954V137.024h13.221ZM70.353,113.424H83.574v10.116H70.353Z" transform="translate(-37.615 -80.36)" fill="#843989"/>
    <path id="Path_16" data-name="Path 16" d="M376.791,291.07a1.153,1.153,0,0,0,1.153,1.153h7.763a1.153,1.153,0,1,0,0-2.306h-7.763A1.153,1.153,0,0,0,376.791,291.07Z" transform="translate(-318.876 -231.676)" fill="#843989"/>
    <path id="Path_17" data-name="Path 17" d="M385.707,320.222h-7.763a1.153,1.153,0,1,0,0,2.306h7.763a1.153,1.153,0,1,0,0-2.306Z" transform="translate(-318.876 -257.323)" fill="#843989"/>
    <path id="Path_18" data-name="Path 18" d="M223.246,291.07a1.153,1.153,0,0,0,1.153,1.153h7.763a1.153,1.153,0,1,0,0-2.306H224.4A1.153,1.153,0,0,0,223.246,291.07Z" transform="translate(-188.932 -231.676)" fill="#843989"/>
    <path id="Path_19" data-name="Path 19" d="M232.162,320.222H224.4a1.153,1.153,0,1,0,0,2.306h7.763a1.153,1.153,0,0,0,0-2.306Z" transform="translate(-188.932 -257.323)" fill="#843989"/>
    <path id="Path_20" data-name="Path 20" d="M69.7,291.07a1.153,1.153,0,0,0,1.153,1.153h7.763a1.153,1.153,0,1,0,0-2.306H70.854A1.153,1.153,0,0,0,69.7,291.07Z" transform="translate(-58.988 -231.676)" fill="#843989"/>
    <path id="Path_21" data-name="Path 21" d="M78.617,320.222H70.854a1.153,1.153,0,0,0,0,2.306h7.763a1.153,1.153,0,0,0,0-2.306Z" transform="translate(-58.988 -257.323)" fill="#843989"/>
  </g>
</svg>
